<?xml version="1.0" standalone="no"?>
<!DOCTYPE svg PUBLIC "-//W3C//DTD SVG 20010904//EN"
 "http://www.w3.org/TR/2001/REC-SVG-20010904/DTD/svg10.dtd">
<svg version="1.0" xmlns="http://www.w3.org/2000/svg"
 width="192.000000pt" height="192.000000pt" viewBox="0 0 192.000000 192.000000"
 preserveAspectRatio="xMidYMid meet">
    <metadata>
    Created by potrace 1.14, written by Peter Selinger 2001-2017
    </metadata>
    <g transform="translate(0.000000,192.000000) scale(0.100000,-0.100000)"
    fill="#000000" stroke="none">
        <path d="M300 1190 l0 -440 60 0 60 0 0 249 c0 138 4 252 9 255 4 3 89 -99
        187 -226 98 -128 213 -276 254 -329 41 -54 117 -152 168 -218 51 -66 97 -123
        101 -125 4 -3 79 87 165 199 87 112 167 211 177 221 19 17 19 12 19 -239 l0
        -257 60 0 60 0 0 442 c0 243 -2 439 -4 437 -2 -2 -106 -137 -231 -299 -125
        -162 -233 -296 -239 -298 -7 -2 -87 93 -178 210 -252 326 -536 695 -602 781
        -32 42 -60 77 -62 77 -2 0 -4 -198 -4 -440z"/>
        <path d="M1035 1359 c-110 -142 -201 -265 -203 -271 -1 -7 15 -32 35 -56 l38
        -43 104 136 c58 74 108 132 113 127 4 -4 9 -138 10 -297 l3 -289 53 67 52 67
        -2 409 -3 409 -200 -259z"/>
        <path d="M670 550 l0 -270 55 0 55 0 0 202 0 201 -52 69 c-29 37 -53 68 -55
        68 -2 0 -3 -121 -3 -270z"/>
    </g>
</svg>
